<mxfile host="Electron" modified="2023-12-20T23:46:50.883Z" agent="Mozilla/5.0 (Windows NT 10.0; Win64; x64) AppleWebKit/537.36 (KHTML, like Gecko) draw.io/22.0.3 Chrome/114.0.5735.289 Electron/25.8.4 Safari/537.36" etag="seakWz4buggOJQCoQwr7" version="22.0.3" type="device">
  <diagram name="UML Activity Diagram - Chirp!" id="g-HJcAP9csvSG7krFRJP">
    <mxGraphModel dx="3268" dy="1672" grid="1" gridSize="10" guides="1" tooltips="1" connect="1" arrows="1" fold="1" page="0" pageScale="1" pageWidth="850" pageHeight="1100" math="0" shadow="0">
      <root>
        <mxCell id="0" style="fontFamily=Helvetica;fontSize=11;fontColor=default;" />
        <mxCell id="1" style="fontFamily=Helvetica;fontSize=11;fontColor=default;" parent="0" />
        <mxCell id="UVocr931k_2hGVf8hIcp-10" style="edgeStyle=orthogonalEdgeStyle;shape=connector;rounded=0;orthogonalLoop=1;jettySize=auto;html=1;labelBackgroundColor=default;strokeColor=#FFC53D;align=center;verticalAlign=bottom;fontFamily=Helvetica;fontSize=11;fontColor=default;endArrow=classic;endSize=8;strokeWidth=2;endFill=1;" parent="1" source="UVocr931k_2hGVf8hIcp-8" edge="1">
          <mxGeometry relative="1" as="geometry">
            <Array as="points">
              <mxPoint x="400" y="260" />
              <mxPoint x="400" y="260" />
            </Array>
            <mxPoint x="400" y="280" as="targetPoint" />
          </mxGeometry>
        </mxCell>
        <mxCell id="UVocr931k_2hGVf8hIcp-8" value="" style="ellipse;whiteSpace=wrap;html=1;aspect=fixed;gradientColor=#404040;shadow=1;fontFamily=Helvetica;fontSize=11;fontColor=default;" parent="1" vertex="1">
          <mxGeometry x="380" y="200" width="40" height="40" as="geometry" />
        </mxCell>
        <mxCell id="UVocr931k_2hGVf8hIcp-15" value="" style="edgeStyle=orthogonalEdgeStyle;shape=connector;rounded=0;orthogonalLoop=1;jettySize=auto;html=1;labelBackgroundColor=default;strokeColor=#FFC53D;strokeWidth=2;align=center;verticalAlign=bottom;fontFamily=Helvetica;fontSize=11;fontColor=default;endArrow=classic;endSize=8;endFill=1;" parent="1" target="UVocr931k_2hGVf8hIcp-11" edge="1">
          <mxGeometry relative="1" as="geometry">
            <mxPoint x="400.0344827586209" y="320" as="sourcePoint" />
            <Array as="points">
              <mxPoint x="400" y="340" />
              <mxPoint x="400" y="340" />
            </Array>
          </mxGeometry>
        </mxCell>
        <mxCell id="UVocr931k_2hGVf8hIcp-9" value="Public Timeline&lt;br&gt;(unauthenticated)" style="rounded=1;whiteSpace=wrap;html=1;arcSize=40;fontColor=#000000;fillColor=#ffffc0;strokeColor=#FFA914;gradientColor=#F0C686;fontFamily=Helvetica;fontSize=11;" parent="1" vertex="1">
          <mxGeometry x="340" y="280" width="120" height="40" as="geometry" />
        </mxCell>
        <mxCell id="UVocr931k_2hGVf8hIcp-20" value="" style="edgeStyle=orthogonalEdgeStyle;shape=connector;rounded=0;orthogonalLoop=1;jettySize=auto;html=1;labelBackgroundColor=default;strokeColor=#FFC53D;strokeWidth=2;align=center;verticalAlign=bottom;fontFamily=Helvetica;fontSize=11;fontColor=default;endArrow=classic;endSize=8;endFill=1;" parent="1" source="UVocr931k_2hGVf8hIcp-11" edge="1">
          <mxGeometry relative="1" as="geometry">
            <mxPoint x="400.0344827586209" y="440" as="targetPoint" />
            <Array as="points">
              <mxPoint x="400" y="420" />
              <mxPoint x="400" y="420" />
            </Array>
          </mxGeometry>
        </mxCell>
        <mxCell id="UVocr931k_2hGVf8hIcp-23" style="edgeStyle=orthogonalEdgeStyle;shape=connector;rounded=0;orthogonalLoop=1;jettySize=auto;html=1;labelBackgroundColor=default;strokeColor=#FF3333;strokeWidth=2;align=center;verticalAlign=bottom;fontFamily=Helvetica;fontSize=11;fontColor=default;endArrow=classic;endSize=8;exitX=0;exitY=0.5;exitDx=0;exitDy=0;entryX=0;entryY=0.5;entryDx=0;entryDy=0;endFill=1;" parent="1" source="UVocr931k_2hGVf8hIcp-17" target="UVocr931k_2hGVf8hIcp-9" edge="1">
          <mxGeometry relative="1" as="geometry">
            <mxPoint x="370" y="300" as="targetPoint" />
            <Array as="points">
              <mxPoint x="300" y="460" />
              <mxPoint x="300" y="300" />
            </Array>
          </mxGeometry>
        </mxCell>
        <mxCell id="UVocr931k_2hGVf8hIcp-11" value="&lt;font color=&quot;#ffffff&quot;&gt;Sign in&lt;/font&gt;" style="rounded=1;whiteSpace=wrap;html=1;arcSize=40;fontColor=#000000;fillColor=#4ED4D0;strokeColor=#1CD4C2;gradientColor=#1C3F40;fontFamily=Helvetica;fontSize=11;" parent="1" vertex="1">
          <mxGeometry x="370" y="360" width="60" height="40" as="geometry" />
        </mxCell>
        <mxCell id="UVocr931k_2hGVf8hIcp-121" style="edgeStyle=orthogonalEdgeStyle;shape=connector;rounded=0;orthogonalLoop=1;jettySize=auto;html=1;labelBackgroundColor=default;strokeColor=#42FF75;strokeWidth=2;align=center;verticalAlign=bottom;fontFamily=Helvetica;fontSize=11;fontColor=default;endArrow=classic;endFill=1;endSize=8;" parent="1" source="UVocr931k_2hGVf8hIcp-17" target="UVocr931k_2hGVf8hIcp-30" edge="1">
          <mxGeometry relative="1" as="geometry" />
        </mxCell>
        <mxCell id="UVocr931k_2hGVf8hIcp-17" value="Successful?" style="shape=hexagon;perimeter=hexagonPerimeter2;whiteSpace=wrap;html=1;fixedSize=1;fontFamily=Helvetica;fontSize=12;fontColor=#ffffff;gradientColor=#303030;fillColor=#263F63;strokeColor=#006EAF;rounded=0;" parent="1" vertex="1">
          <mxGeometry x="350" y="440" width="100" height="40" as="geometry" />
        </mxCell>
        <mxCell id="UVocr931k_2hGVf8hIcp-19" value="&lt;font color=&quot;#ff6b6b&quot;&gt;No&lt;/font&gt;" style="text;html=1;align=center;verticalAlign=middle;resizable=0;points=[];autosize=1;strokeColor=none;fillColor=none;fontSize=11;fontFamily=Helvetica;fontColor=default;" parent="1" vertex="1">
          <mxGeometry x="310" y="430" width="40" height="30" as="geometry" />
        </mxCell>
        <mxCell id="FzTagu3H9T6tqYasrhL2-9" value="" style="edgeStyle=orthogonalEdgeStyle;shape=connector;rounded=0;orthogonalLoop=1;jettySize=auto;html=1;labelBackgroundColor=default;strokeColor=#FFC53D;strokeWidth=2;align=center;verticalAlign=bottom;fontFamily=Helvetica;fontSize=11;fontColor=default;endArrow=classic;endFill=1;endSize=8;" edge="1" parent="1" source="UVocr931k_2hGVf8hIcp-21" target="UVocr931k_2hGVf8hIcp-33">
          <mxGeometry relative="1" as="geometry" />
        </mxCell>
        <mxCell id="UVocr931k_2hGVf8hIcp-21" value="Public Timeline&lt;br&gt;(authorized)" style="rounded=1;whiteSpace=wrap;html=1;arcSize=40;fontColor=#000000;fillColor=#ffffc0;strokeColor=#FFA914;gradientColor=#F0C686;fontFamily=Helvetica;fontSize=11;" parent="1" vertex="1">
          <mxGeometry x="440" y="640" width="120" height="40" as="geometry" />
        </mxCell>
        <mxCell id="FzTagu3H9T6tqYasrhL2-6" style="edgeStyle=orthogonalEdgeStyle;shape=connector;rounded=0;orthogonalLoop=1;jettySize=auto;html=1;entryX=0.5;entryY=0;entryDx=0;entryDy=0;labelBackgroundColor=default;strokeColor=#FF3333;strokeWidth=2;align=center;verticalAlign=bottom;fontFamily=Helvetica;fontSize=11;fontColor=default;endArrow=classic;endFill=1;endSize=8;" edge="1" parent="1" source="UVocr931k_2hGVf8hIcp-30" target="FzTagu3H9T6tqYasrhL2-5">
          <mxGeometry relative="1" as="geometry">
            <Array as="points">
              <mxPoint x="390" y="600" />
              <mxPoint x="300" y="600" />
            </Array>
          </mxGeometry>
        </mxCell>
        <mxCell id="UVocr931k_2hGVf8hIcp-30" value="Authorized?" style="shape=hexagon;perimeter=hexagonPerimeter2;whiteSpace=wrap;html=1;fixedSize=1;fontFamily=Helvetica;fontSize=12;fontColor=#ffffff;gradientColor=#303030;fillColor=#263F63;strokeColor=#006EAF;rounded=0;" parent="1" vertex="1">
          <mxGeometry x="350" y="520" width="100" height="40" as="geometry" />
        </mxCell>
        <mxCell id="UVocr931k_2hGVf8hIcp-172" style="edgeStyle=orthogonalEdgeStyle;shape=connector;rounded=0;orthogonalLoop=1;jettySize=auto;html=1;labelBackgroundColor=default;strokeColor=#FFC53D;strokeWidth=2;align=center;verticalAlign=bottom;fontFamily=Helvetica;fontSize=11;fontColor=default;endArrow=classic;endFill=1;endSize=8;" parent="1" source="UVocr931k_2hGVf8hIcp-33" target="UVocr931k_2hGVf8hIcp-169" edge="1">
          <mxGeometry relative="1" as="geometry" />
        </mxCell>
        <mxCell id="UVocr931k_2hGVf8hIcp-33" value="Seed DB&lt;br&gt;(authorized)" style="rounded=1;whiteSpace=wrap;html=1;arcSize=40;fontColor=#000000;fillColor=#ffffc0;strokeColor=#FFA914;gradientColor=#F0C686;fontFamily=Helvetica;fontSize=11;" parent="1" vertex="1">
          <mxGeometry x="440" y="720" width="120" height="40" as="geometry" />
        </mxCell>
        <mxCell id="FzTagu3H9T6tqYasrhL2-35" value="" style="edgeStyle=orthogonalEdgeStyle;shape=connector;rounded=0;orthogonalLoop=1;jettySize=auto;html=1;labelBackgroundColor=default;strokeColor=#FFC53D;strokeWidth=2;align=center;verticalAlign=bottom;fontFamily=Helvetica;fontSize=11;fontColor=default;endArrow=classic;endFill=1;endSize=8;entryX=0;entryY=0.5;entryDx=0;entryDy=0;" edge="1" parent="1" source="UVocr931k_2hGVf8hIcp-70" target="FzTagu3H9T6tqYasrhL2-39">
          <mxGeometry relative="1" as="geometry">
            <mxPoint x="29.519999999999982" y="1300" as="targetPoint" />
          </mxGeometry>
        </mxCell>
        <mxCell id="UVocr931k_2hGVf8hIcp-70" value="User Timeline&lt;br&gt;(My timeline)" style="rounded=1;whiteSpace=wrap;html=1;arcSize=40;fontColor=#000000;fillColor=#ffffc0;strokeColor=#FFA914;gradientColor=#F0C686;fontFamily=Helvetica;fontSize=11;" parent="1" vertex="1">
          <mxGeometry x="-160" y="1280" width="120" height="40" as="geometry" />
        </mxCell>
        <mxCell id="UVocr931k_2hGVf8hIcp-109" style="edgeStyle=orthogonalEdgeStyle;shape=connector;rounded=0;orthogonalLoop=1;jettySize=auto;html=1;labelBackgroundColor=default;strokeColor=#FF3333;strokeWidth=2;align=center;verticalAlign=bottom;fontFamily=Helvetica;fontSize=11;fontColor=default;endArrow=classic;endSize=8;endFill=1;" parent="1" edge="1">
          <mxGeometry relative="1" as="geometry">
            <mxPoint x="300" y="430" as="sourcePoint" />
            <mxPoint x="300" y="370" as="targetPoint" />
            <Array as="points">
              <mxPoint x="300" y="430" />
              <mxPoint x="300" y="270" />
            </Array>
          </mxGeometry>
        </mxCell>
        <mxCell id="UVocr931k_2hGVf8hIcp-111" value="&lt;font color=&quot;#42ff75&quot;&gt;Yes&lt;/font&gt;" style="text;html=1;align=center;verticalAlign=middle;resizable=0;points=[];autosize=1;strokeColor=none;fillColor=none;fontSize=11;fontFamily=Helvetica;fontColor=default;" parent="1" vertex="1">
          <mxGeometry x="400" y="480" width="40" height="30" as="geometry" />
        </mxCell>
        <mxCell id="UVocr931k_2hGVf8hIcp-157" value="" style="edgeStyle=orthogonalEdgeStyle;shape=connector;rounded=0;orthogonalLoop=1;jettySize=auto;html=1;labelBackgroundColor=default;strokeColor=#FFC53D;strokeWidth=2;align=center;verticalAlign=bottom;fontFamily=Helvetica;fontSize=11;fontColor=default;endArrow=classic;endSize=8;endFill=1;" parent="1" source="UVocr931k_2hGVf8hIcp-158" target="UVocr931k_2hGVf8hIcp-160" edge="1">
          <mxGeometry relative="1" as="geometry" />
        </mxCell>
        <mxCell id="UVocr931k_2hGVf8hIcp-158" value="&lt;font color=&quot;#ffffff&quot;&gt;Type cheep&lt;/font&gt;" style="rounded=1;whiteSpace=wrap;html=1;arcSize=40;fontColor=#000000;fillColor=#4ED4D0;strokeColor=#1CD4C2;gradientColor=#1C3F40;fontFamily=Helvetica;fontSize=11;" parent="1" vertex="1">
          <mxGeometry x="440" y="1040" width="120" height="40" as="geometry" />
        </mxCell>
        <mxCell id="UVocr931k_2hGVf8hIcp-159" value="" style="edgeStyle=orthogonalEdgeStyle;shape=connector;rounded=0;orthogonalLoop=1;jettySize=auto;html=1;labelBackgroundColor=default;strokeColor=#FFC53D;strokeWidth=2;align=center;verticalAlign=bottom;fontFamily=Helvetica;fontSize=11;fontColor=default;endArrow=classic;endSize=8;endFill=1;" parent="1" source="UVocr931k_2hGVf8hIcp-160" target="UVocr931k_2hGVf8hIcp-163" edge="1">
          <mxGeometry relative="1" as="geometry">
            <Array as="points">
              <mxPoint x="500" y="1180" />
              <mxPoint x="500" y="1180" />
            </Array>
          </mxGeometry>
        </mxCell>
        <mxCell id="UVocr931k_2hGVf8hIcp-160" value="&lt;font color=&quot;#ffffff&quot;&gt;Share/Cheep!&lt;/font&gt;" style="rounded=1;whiteSpace=wrap;html=1;arcSize=40;fontColor=#000000;fillColor=#4ED4D0;strokeColor=#1CD4C2;gradientColor=#1C3F40;fontFamily=Helvetica;fontSize=11;" parent="1" vertex="1">
          <mxGeometry x="440" y="1120" width="120" height="40" as="geometry" />
        </mxCell>
        <mxCell id="UVocr931k_2hGVf8hIcp-162" style="edgeStyle=orthogonalEdgeStyle;shape=connector;rounded=0;orthogonalLoop=1;jettySize=auto;html=1;entryX=0.5;entryY=1;entryDx=0;entryDy=0;labelBackgroundColor=default;strokeColor=#FF3333;strokeWidth=2;align=center;verticalAlign=bottom;fontFamily=Helvetica;fontSize=11;fontColor=default;endArrow=classic;endFill=1;endSize=8;" parent="1" source="UVocr931k_2hGVf8hIcp-163" target="UVocr931k_2hGVf8hIcp-167" edge="1">
          <mxGeometry relative="1" as="geometry" />
        </mxCell>
        <mxCell id="FzTagu3H9T6tqYasrhL2-14" value="" style="edgeStyle=orthogonalEdgeStyle;shape=connector;rounded=0;orthogonalLoop=1;jettySize=auto;html=1;labelBackgroundColor=default;strokeColor=#42FF75;strokeWidth=2;align=center;verticalAlign=bottom;fontFamily=Helvetica;fontSize=11;fontColor=default;endArrow=classic;endFill=1;endSize=8;entryX=0.5;entryY=0;entryDx=0;entryDy=0;" edge="1" parent="1" source="UVocr931k_2hGVf8hIcp-163" target="zMSgVtLhh-YdFXEBTuxo-8">
          <mxGeometry relative="1" as="geometry" />
        </mxCell>
        <mxCell id="UVocr931k_2hGVf8hIcp-163" value="Valid?" style="shape=hexagon;perimeter=hexagonPerimeter2;whiteSpace=wrap;html=1;fixedSize=1;fontFamily=Helvetica;fontSize=12;fontColor=#ffffff;gradientColor=#303030;fillColor=#263F63;strokeColor=#006EAF;rounded=0;" parent="1" vertex="1">
          <mxGeometry x="450" y="1200" width="100" height="40" as="geometry" />
        </mxCell>
        <mxCell id="UVocr931k_2hGVf8hIcp-166" style="edgeStyle=orthogonalEdgeStyle;shape=connector;rounded=0;orthogonalLoop=1;jettySize=auto;html=1;labelBackgroundColor=default;strokeColor=#FF3333;strokeWidth=2;align=center;verticalAlign=bottom;fontFamily=Helvetica;fontSize=11;fontColor=default;endArrow=classic;endFill=1;endSize=8;entryX=0;entryY=0.5;entryDx=0;entryDy=0;" parent="1" source="UVocr931k_2hGVf8hIcp-167" target="UVocr931k_2hGVf8hIcp-158" edge="1">
          <mxGeometry relative="1" as="geometry">
            <mxPoint x="440" y="980" as="targetPoint" />
            <Array as="points">
              <mxPoint x="380" y="1060" />
            </Array>
          </mxGeometry>
        </mxCell>
        <mxCell id="UVocr931k_2hGVf8hIcp-167" value="&lt;font color=&quot;#ffffff&quot;&gt;Warning Message&lt;br&gt;&lt;/font&gt;" style="rounded=1;whiteSpace=wrap;html=1;arcSize=40;fontColor=#000000;fillColor=none;strokeColor=#FFFFFF;gradientColor=#1C3F40;fontFamily=Helvetica;fontSize=11;" parent="1" vertex="1">
          <mxGeometry x="340" y="1120" width="80" height="40" as="geometry" />
        </mxCell>
        <mxCell id="UVocr931k_2hGVf8hIcp-242" value="" style="edgeStyle=orthogonalEdgeStyle;shape=connector;rounded=0;orthogonalLoop=1;jettySize=auto;html=1;labelBackgroundColor=default;strokeColor=#FFC53D;strokeWidth=2;align=center;verticalAlign=bottom;fontFamily=Helvetica;fontSize=11;fontColor=default;endArrow=classic;endFill=1;endSize=8;" parent="1" source="UVocr931k_2hGVf8hIcp-169" target="UVocr931k_2hGVf8hIcp-236" edge="1">
          <mxGeometry relative="1" as="geometry" />
        </mxCell>
        <mxCell id="UVocr931k_2hGVf8hIcp-169" value="&lt;font color=&quot;#ffffff&quot;&gt;Seed DB2&lt;/font&gt;" style="rounded=1;whiteSpace=wrap;html=1;arcSize=40;fontColor=#000000;fillColor=#4ED4D0;strokeColor=#1CD4C2;gradientColor=#1C3F40;fontFamily=Helvetica;fontSize=11;" parent="1" vertex="1">
          <mxGeometry x="460" y="800" width="80" height="40" as="geometry" />
        </mxCell>
        <mxCell id="FzTagu3H9T6tqYasrhL2-63" value="" style="edgeStyle=orthogonalEdgeStyle;shape=connector;rounded=0;orthogonalLoop=1;jettySize=auto;html=1;labelBackgroundColor=default;strokeColor=#FFC53D;strokeWidth=2;align=center;verticalAlign=bottom;fontFamily=Helvetica;fontSize=11;fontColor=default;endArrow=classic;endFill=1;endSize=8;" edge="1" parent="1" source="UVocr931k_2hGVf8hIcp-179" target="FzTagu3H9T6tqYasrhL2-69">
          <mxGeometry relative="1" as="geometry">
            <mxPoint x="99.94000000000005" y="680" as="targetPoint" />
          </mxGeometry>
        </mxCell>
        <mxCell id="UVocr931k_2hGVf8hIcp-179" value="&lt;font color=&quot;#ffffff&quot;&gt;Forget Me&lt;/font&gt;" style="rounded=1;whiteSpace=wrap;html=1;arcSize=40;fontColor=#000000;fillColor=#4ED4D0;strokeColor=#1CD4C2;gradientColor=#1C3F40;fontFamily=Helvetica;fontSize=11;" parent="1" vertex="1">
          <mxGeometry x="59.94" y="720" width="80" height="40" as="geometry" />
        </mxCell>
        <mxCell id="UVocr931k_2hGVf8hIcp-186" value="&lt;font color=&quot;#ff6b6b&quot;&gt;No&lt;/font&gt;" style="text;html=1;align=center;verticalAlign=middle;resizable=0;points=[];autosize=1;strokeColor=none;fillColor=none;fontSize=11;fontFamily=Helvetica;fontColor=default;" parent="1" vertex="1">
          <mxGeometry x="410" y="1190" width="40" height="30" as="geometry" />
        </mxCell>
        <mxCell id="UVocr931k_2hGVf8hIcp-188" value="&lt;font color=&quot;#42ff75&quot;&gt;Yes&lt;/font&gt;" style="text;html=1;align=center;verticalAlign=middle;resizable=0;points=[];autosize=1;strokeColor=none;fillColor=none;fontSize=11;fontFamily=Helvetica;fontColor=default;" parent="1" vertex="1">
          <mxGeometry x="460" y="1240" width="40" height="30" as="geometry" />
        </mxCell>
        <mxCell id="UVocr931k_2hGVf8hIcp-200" value="" style="group;fontFamily=Helvetica;fontSize=11;fontColor=default;" parent="1" vertex="1" connectable="0">
          <mxGeometry x="-85" y="640" width="40" height="40" as="geometry" />
        </mxCell>
        <mxCell id="UVocr931k_2hGVf8hIcp-198" value="" style="ellipse;whiteSpace=wrap;html=1;aspect=fixed;gradientColor=none;shadow=1;fillColor=#FFFFFF;fontFamily=Helvetica;fontSize=11;fontColor=default;" parent="UVocr931k_2hGVf8hIcp-200" vertex="1">
          <mxGeometry width="40" height="40" as="geometry" />
        </mxCell>
        <mxCell id="UVocr931k_2hGVf8hIcp-199" value="" style="ellipse;whiteSpace=wrap;html=1;aspect=fixed;gradientColor=#404040;shadow=1;fontFamily=Helvetica;fontSize=11;fontColor=default;" parent="UVocr931k_2hGVf8hIcp-200" vertex="1">
          <mxGeometry x="10" y="10" width="20" height="20" as="geometry" />
        </mxCell>
        <mxCell id="UVocr931k_2hGVf8hIcp-236" value="&lt;font color=&quot;#ffffff&quot;&gt;New DB2&lt;/font&gt;" style="rounded=1;whiteSpace=wrap;html=1;arcSize=40;fontColor=#000000;fillColor=none;strokeColor=#FFFFFF;gradientColor=#1C3F40;fontFamily=Helvetica;fontSize=11;" parent="1" vertex="1">
          <mxGeometry x="460" y="880" width="80" height="40" as="geometry" />
        </mxCell>
        <mxCell id="UVocr931k_2hGVf8hIcp-270" style="shape=connector;rounded=0;orthogonalLoop=1;jettySize=auto;html=1;labelBackgroundColor=default;strokeColor=#FF3333;strokeWidth=2;align=center;verticalAlign=bottom;fontFamily=Helvetica;fontSize=11;fontColor=default;endArrow=classic;endSize=8;endFill=1;" parent="1" edge="1">
          <mxGeometry relative="1" as="geometry">
            <mxPoint x="379.65999999999997" y="1110" as="sourcePoint" />
            <mxPoint x="379.65999999999997" y="1080" as="targetPoint" />
          </mxGeometry>
        </mxCell>
        <mxCell id="UVocr931k_2hGVf8hIcp-274" style="shape=connector;rounded=0;orthogonalLoop=1;jettySize=auto;html=1;labelBackgroundColor=default;strokeColor=#FF3333;strokeWidth=2;align=center;verticalAlign=bottom;fontFamily=Helvetica;fontSize=11;fontColor=default;endArrow=classic;endSize=8;endFill=1;" parent="1" edge="1">
          <mxGeometry relative="1" as="geometry">
            <mxPoint x="440" y="1220" as="sourcePoint" />
            <mxPoint x="410" y="1220" as="targetPoint" />
            <Array as="points">
              <mxPoint x="410" y="1220" />
            </Array>
          </mxGeometry>
        </mxCell>
        <mxCell id="86_-Uz71LiWEpe0kazTY-91" value="Start/Entry Point" style="text;html=1;align=center;verticalAlign=middle;resizable=0;points=[];autosize=1;strokeColor=none;fillColor=none;fontSize=11;fontFamily=Helvetica;fontColor=default;" parent="1" vertex="1">
          <mxGeometry x="350" y="170" width="100" height="30" as="geometry" />
        </mxCell>
        <mxCell id="86_-Uz71LiWEpe0kazTY-93" value="&lt;span style=&quot;color: rgb(240, 240, 240); font-family: Helvetica; font-size: 11px; font-style: normal; font-variant-ligatures: normal; font-variant-caps: normal; font-weight: 400; letter-spacing: normal; orphans: 2; text-indent: 0px; text-transform: none; widows: 2; word-spacing: 0px; -webkit-text-stroke-width: 0px; background-color: rgb(24, 20, 29); text-decoration-thickness: initial; text-decoration-style: initial; text-decoration-color: initial; float: none; display: inline !important;&quot;&gt;Stop/Exit Point&lt;/span&gt;" style="text;whiteSpace=wrap;html=1;fontSize=11;fontFamily=Helvetica;fontColor=default;align=center;" parent="1" vertex="1">
          <mxGeometry x="-120" y="610" width="110" height="41.25" as="geometry" />
        </mxCell>
        <mxCell id="1Q1zJ-E6xf9HNXKGd8Qc-10" value="" style="shape=callout;whiteSpace=wrap;html=1;perimeter=calloutPerimeter;fontFamily=Helvetica;fontSize=11;fontColor=default;rotation=-90;base=40;align=right;fillColor=#2B2E1B;spacingLeft=0;gradientColor=#8E9956;spacingRight=10;flipV=0;" parent="1" vertex="1">
          <mxGeometry x="190" y="403.75" width="40" height="280" as="geometry" />
        </mxCell>
        <mxCell id="1Q1zJ-E6xf9HNXKGd8Qc-11" value="Authorized users include: HelgeCPH, ondfisk,&lt;br&gt;and the current user for this user journey" style="text;html=1;align=left;verticalAlign=middle;resizable=0;points=[];autosize=1;strokeColor=none;fillColor=none;fontSize=11;fontFamily=Helvetica;fontColor=default;" parent="1" vertex="1">
          <mxGeometry x="80" y="523.75" width="250" height="40" as="geometry" />
        </mxCell>
        <mxCell id="FzTagu3H9T6tqYasrhL2-17" value="" style="edgeStyle=orthogonalEdgeStyle;shape=connector;rounded=0;orthogonalLoop=1;jettySize=auto;html=1;labelBackgroundColor=default;strokeColor=#FFC53D;strokeWidth=2;align=center;verticalAlign=bottom;fontFamily=Helvetica;fontSize=11;fontColor=default;endArrow=classic;endFill=1;endSize=8;" edge="1" parent="1" source="zMSgVtLhh-YdFXEBTuxo-8" target="FzTagu3H9T6tqYasrhL2-13">
          <mxGeometry relative="1" as="geometry" />
        </mxCell>
        <mxCell id="zMSgVtLhh-YdFXEBTuxo-8" value="&lt;font color=&quot;#ffffff&quot;&gt;New cheep added&lt;br&gt;&lt;/font&gt;" style="rounded=1;whiteSpace=wrap;html=1;arcSize=40;fontColor=#000000;fillColor=none;strokeColor=#FFFFFF;gradientColor=#1C3F40;fontFamily=Helvetica;fontSize=11;" parent="1" vertex="1">
          <mxGeometry x="459.99999999999994" y="1280" width="80" height="40" as="geometry" />
        </mxCell>
        <mxCell id="FzTagu3H9T6tqYasrhL2-3" style="edgeStyle=orthogonalEdgeStyle;shape=connector;rounded=0;orthogonalLoop=1;jettySize=auto;html=1;labelBackgroundColor=default;strokeColor=#42FF75;strokeWidth=2;align=center;verticalAlign=bottom;fontFamily=Helvetica;fontSize=11;fontColor=default;endArrow=classic;endFill=1;endSize=8;" edge="1" parent="1" target="UVocr931k_2hGVf8hIcp-21">
          <mxGeometry relative="1" as="geometry">
            <mxPoint x="410" y="560" as="sourcePoint" />
            <mxPoint x="400" y="600" as="targetPoint" />
            <Array as="points">
              <mxPoint x="410" y="560" />
              <mxPoint x="410" y="600" />
              <mxPoint x="500" y="600" />
            </Array>
          </mxGeometry>
        </mxCell>
        <mxCell id="FzTagu3H9T6tqYasrhL2-4" value="&lt;font color=&quot;#42ff75&quot;&gt;Yes&lt;/font&gt;" style="text;html=1;align=center;verticalAlign=middle;resizable=0;points=[];autosize=1;strokeColor=none;fillColor=none;fontSize=11;fontFamily=Helvetica;fontColor=default;" vertex="1" parent="1">
          <mxGeometry x="410" y="560" width="40" height="30" as="geometry" />
        </mxCell>
        <mxCell id="FzTagu3H9T6tqYasrhL2-5" value="Public Timeline&lt;br&gt;(unauthorized)" style="rounded=1;whiteSpace=wrap;html=1;arcSize=40;fontColor=#000000;fillColor=#ffffc0;strokeColor=#FFA914;gradientColor=#F0C686;fontFamily=Helvetica;fontSize=11;" vertex="1" parent="1">
          <mxGeometry x="240" y="640" width="120" height="40" as="geometry" />
        </mxCell>
        <mxCell id="FzTagu3H9T6tqYasrhL2-7" value="&lt;font color=&quot;#ff6b6b&quot;&gt;No&lt;/font&gt;" style="text;html=1;align=center;verticalAlign=middle;resizable=0;points=[];autosize=1;strokeColor=none;fillColor=none;fontSize=11;fontFamily=Helvetica;fontColor=default;" vertex="1" parent="1">
          <mxGeometry x="350" y="560" width="40" height="30" as="geometry" />
        </mxCell>
        <mxCell id="FzTagu3H9T6tqYasrhL2-8" style="shape=connector;rounded=0;orthogonalLoop=1;jettySize=auto;html=1;labelBackgroundColor=default;strokeColor=#FF3333;strokeWidth=2;align=center;verticalAlign=bottom;fontFamily=Helvetica;fontSize=11;fontColor=default;endArrow=classic;endSize=8;endFill=1;" edge="1" parent="1">
          <mxGeometry relative="1" as="geometry">
            <mxPoint x="370" y="600" as="sourcePoint" />
            <mxPoint x="340" y="600" as="targetPoint" />
          </mxGeometry>
        </mxCell>
        <mxCell id="FzTagu3H9T6tqYasrhL2-12" value="" style="edgeStyle=orthogonalEdgeStyle;shape=connector;rounded=0;orthogonalLoop=1;jettySize=auto;html=1;labelBackgroundColor=default;strokeColor=#FFC53D;strokeWidth=2;align=center;verticalAlign=bottom;fontFamily=Helvetica;fontSize=11;fontColor=default;endArrow=classic;endFill=1;endSize=8;" edge="1" parent="1" source="FzTagu3H9T6tqYasrhL2-10" target="UVocr931k_2hGVf8hIcp-158">
          <mxGeometry relative="1" as="geometry" />
        </mxCell>
        <mxCell id="FzTagu3H9T6tqYasrhL2-10" value="Public Timeline&lt;br&gt;(authorized)" style="rounded=1;whiteSpace=wrap;html=1;arcSize=40;fontColor=#000000;fillColor=#ffffc0;strokeColor=#FFA914;gradientColor=#F0C686;fontFamily=Helvetica;fontSize=11;" vertex="1" parent="1">
          <mxGeometry x="440" y="960" width="120" height="40" as="geometry" />
        </mxCell>
        <mxCell id="FzTagu3H9T6tqYasrhL2-11" value="" style="edgeStyle=orthogonalEdgeStyle;shape=connector;rounded=0;orthogonalLoop=1;jettySize=auto;html=1;labelBackgroundColor=default;strokeColor=#FFC53D;strokeWidth=2;align=center;verticalAlign=bottom;fontFamily=Helvetica;fontSize=11;fontColor=default;endArrow=classic;endFill=1;endSize=8;" edge="1" parent="1">
          <mxGeometry relative="1" as="geometry">
            <mxPoint x="500" y="920" as="sourcePoint" />
            <mxPoint x="500" y="960" as="targetPoint" />
          </mxGeometry>
        </mxCell>
        <mxCell id="FzTagu3H9T6tqYasrhL2-16" value="" style="edgeStyle=orthogonalEdgeStyle;shape=connector;rounded=0;orthogonalLoop=1;jettySize=auto;html=1;labelBackgroundColor=default;strokeColor=#FFC53D;strokeWidth=2;align=center;verticalAlign=bottom;fontFamily=Helvetica;fontSize=11;fontColor=default;endArrow=classic;endFill=1;endSize=8;" edge="1" parent="1" source="FzTagu3H9T6tqYasrhL2-13" target="FzTagu3H9T6tqYasrhL2-15">
          <mxGeometry relative="1" as="geometry">
            <mxPoint x="400" y="1380" as="sourcePoint" />
          </mxGeometry>
        </mxCell>
        <mxCell id="FzTagu3H9T6tqYasrhL2-13" value="Public Timeline&lt;br&gt;(authorized)" style="rounded=1;whiteSpace=wrap;html=1;arcSize=40;fontColor=#000000;fillColor=#ffffc0;strokeColor=#FFA914;gradientColor=#F0C686;fontFamily=Helvetica;fontSize=11;" vertex="1" parent="1">
          <mxGeometry x="440" y="1360" width="120" height="40" as="geometry" />
        </mxCell>
        <mxCell id="FzTagu3H9T6tqYasrhL2-19" style="edgeStyle=orthogonalEdgeStyle;shape=connector;rounded=0;orthogonalLoop=1;jettySize=auto;html=1;entryX=0.5;entryY=0;entryDx=0;entryDy=0;labelBackgroundColor=default;strokeColor=#FFC53D;strokeWidth=2;align=center;verticalAlign=bottom;fontFamily=Helvetica;fontSize=11;fontColor=default;endArrow=classic;endFill=1;endSize=8;" edge="1" parent="1" source="FzTagu3H9T6tqYasrhL2-15" target="FzTagu3H9T6tqYasrhL2-18">
          <mxGeometry relative="1" as="geometry" />
        </mxCell>
        <mxCell id="FzTagu3H9T6tqYasrhL2-15" value="&lt;font style=&quot;&quot;&gt;&lt;font color=&quot;#ffffff&quot;&gt;Follow&lt;br&gt;(Happy)&lt;/font&gt;&lt;br&gt;&lt;/font&gt;" style="rounded=1;whiteSpace=wrap;html=1;arcSize=40;fontColor=#000000;fillColor=#4ED4D0;strokeColor=#1CD4C2;gradientColor=#1C3F40;fontFamily=Helvetica;fontSize=11;" vertex="1" parent="1">
          <mxGeometry x="279.9999999999999" y="1360" width="80.24" height="40" as="geometry" />
        </mxCell>
        <mxCell id="FzTagu3H9T6tqYasrhL2-21" style="edgeStyle=orthogonalEdgeStyle;shape=connector;rounded=0;orthogonalLoop=1;jettySize=auto;html=1;entryX=0.5;entryY=1;entryDx=0;entryDy=0;labelBackgroundColor=default;strokeColor=#FFC53D;strokeWidth=2;align=center;verticalAlign=bottom;fontFamily=Helvetica;fontSize=11;fontColor=default;endArrow=classic;endFill=1;endSize=8;" edge="1" parent="1" source="FzTagu3H9T6tqYasrhL2-18" target="FzTagu3H9T6tqYasrhL2-20">
          <mxGeometry relative="1" as="geometry">
            <Array as="points">
              <mxPoint x="180" y="1460" />
            </Array>
          </mxGeometry>
        </mxCell>
        <mxCell id="FzTagu3H9T6tqYasrhL2-18" value="&lt;font color=&quot;#ffffff&quot;&gt;Button to Happy becomes &lt;i&gt;unfollow&lt;/i&gt;&lt;/font&gt;" style="rounded=1;whiteSpace=wrap;html=1;arcSize=40;fontColor=#000000;fillColor=none;strokeColor=#FFFFFF;gradientColor=#1C3F40;fontFamily=Helvetica;fontSize=11;" vertex="1" parent="1">
          <mxGeometry x="220.48000000000002" y="1440" width="199.52" height="40" as="geometry" />
        </mxCell>
        <mxCell id="FzTagu3H9T6tqYasrhL2-20" value="Public Timeline&lt;br&gt;(authorized)" style="rounded=1;whiteSpace=wrap;html=1;arcSize=40;fontColor=#000000;fillColor=#ffffc0;strokeColor=#FFA914;gradientColor=#F0C686;fontFamily=Helvetica;fontSize=11;" vertex="1" parent="1">
          <mxGeometry x="120" y="1360" width="120" height="40" as="geometry" />
        </mxCell>
        <mxCell id="FzTagu3H9T6tqYasrhL2-22" value="" style="edgeStyle=orthogonalEdgeStyle;shape=connector;rounded=0;orthogonalLoop=1;jettySize=auto;html=1;labelBackgroundColor=default;strokeColor=#FFC53D;strokeWidth=2;align=center;verticalAlign=bottom;fontFamily=Helvetica;fontSize=11;fontColor=default;endArrow=classic;endFill=1;endSize=8;" edge="1" target="FzTagu3H9T6tqYasrhL2-24" parent="1">
          <mxGeometry relative="1" as="geometry">
            <mxPoint x="119.51999999999998" y="1380" as="sourcePoint" />
          </mxGeometry>
        </mxCell>
        <mxCell id="FzTagu3H9T6tqYasrhL2-23" style="edgeStyle=orthogonalEdgeStyle;shape=connector;rounded=0;orthogonalLoop=1;jettySize=auto;html=1;entryX=0.5;entryY=0;entryDx=0;entryDy=0;labelBackgroundColor=default;strokeColor=#FFC53D;strokeWidth=2;align=center;verticalAlign=bottom;fontFamily=Helvetica;fontSize=11;fontColor=default;endArrow=classic;endFill=1;endSize=8;" edge="1" source="FzTagu3H9T6tqYasrhL2-24" target="FzTagu3H9T6tqYasrhL2-25" parent="1">
          <mxGeometry relative="1" as="geometry" />
        </mxCell>
        <mxCell id="FzTagu3H9T6tqYasrhL2-24" value="&lt;font style=&quot;&quot;&gt;&lt;font color=&quot;#ffffff&quot;&gt;Follow&lt;br&gt;(Chirp27)&lt;/font&gt;&lt;br&gt;&lt;/font&gt;" style="rounded=1;whiteSpace=wrap;html=1;arcSize=40;fontColor=#000000;fillColor=#4ED4D0;strokeColor=#1CD4C2;gradientColor=#1C3F40;fontFamily=Helvetica;fontSize=11;" vertex="1" parent="1">
          <mxGeometry x="-0.4800000000001319" y="1360" width="80.24" height="40" as="geometry" />
        </mxCell>
        <mxCell id="FzTagu3H9T6tqYasrhL2-25" value="&lt;font color=&quot;#ffffff&quot;&gt;Button to Chirp27 becomes &lt;i&gt;unfollow&lt;/i&gt;&lt;/font&gt;" style="rounded=1;whiteSpace=wrap;html=1;arcSize=40;fontColor=#000000;fillColor=none;strokeColor=#FFFFFF;gradientColor=#1C3F40;fontFamily=Helvetica;fontSize=11;" vertex="1" parent="1">
          <mxGeometry x="-60" y="1440" width="199.52" height="40" as="geometry" />
        </mxCell>
        <mxCell id="FzTagu3H9T6tqYasrhL2-27" style="edgeStyle=orthogonalEdgeStyle;shape=connector;rounded=0;orthogonalLoop=1;jettySize=auto;html=1;entryX=0.5;entryY=1;entryDx=0;entryDy=0;labelBackgroundColor=default;strokeColor=#FFC53D;strokeWidth=2;align=center;verticalAlign=bottom;fontFamily=Helvetica;fontSize=11;fontColor=default;endArrow=classic;endFill=1;endSize=8;" edge="1" target="FzTagu3H9T6tqYasrhL2-28" parent="1" source="FzTagu3H9T6tqYasrhL2-25">
          <mxGeometry relative="1" as="geometry">
            <mxPoint x="-60" y="1460" as="sourcePoint" />
            <Array as="points">
              <mxPoint x="-100" y="1460" />
            </Array>
          </mxGeometry>
        </mxCell>
        <mxCell id="FzTagu3H9T6tqYasrhL2-30" value="" style="edgeStyle=orthogonalEdgeStyle;shape=connector;rounded=0;orthogonalLoop=1;jettySize=auto;html=1;labelBackgroundColor=default;strokeColor=#FFC53D;strokeWidth=2;align=center;verticalAlign=bottom;fontFamily=Helvetica;fontSize=11;fontColor=default;endArrow=classic;endFill=1;endSize=8;" edge="1" parent="1" source="FzTagu3H9T6tqYasrhL2-28" target="UVocr931k_2hGVf8hIcp-70">
          <mxGeometry relative="1" as="geometry" />
        </mxCell>
        <mxCell id="FzTagu3H9T6tqYasrhL2-28" value="Public Timeline&lt;br&gt;(authorized)" style="rounded=1;whiteSpace=wrap;html=1;arcSize=40;fontColor=#000000;fillColor=#ffffc0;strokeColor=#FFA914;gradientColor=#F0C686;fontFamily=Helvetica;fontSize=11;" vertex="1" parent="1">
          <mxGeometry x="-160" y="1360" width="120" height="40" as="geometry" />
        </mxCell>
        <mxCell id="FzTagu3H9T6tqYasrhL2-31" value="(Chirp27 already have some cheeps)" style="text;html=1;align=center;verticalAlign=middle;resizable=0;points=[];autosize=1;strokeColor=none;fillColor=none;fontSize=11;fontFamily=Helvetica;fontColor=default;" vertex="1" parent="1">
          <mxGeometry x="-60.47999999999999" y="1490" width="200" height="30" as="geometry" />
        </mxCell>
        <mxCell id="FzTagu3H9T6tqYasrhL2-32" value="(Happy already have some cheeps)" style="text;html=1;align=center;verticalAlign=middle;resizable=0;points=[];autosize=1;strokeColor=none;fillColor=none;fontSize=11;fontFamily=Helvetica;fontColor=default;" vertex="1" parent="1">
          <mxGeometry x="220" y="1490" width="200" height="30" as="geometry" />
        </mxCell>
        <mxCell id="FzTagu3H9T6tqYasrhL2-37" value="" style="edgeStyle=orthogonalEdgeStyle;shape=connector;rounded=0;orthogonalLoop=1;jettySize=auto;html=1;labelBackgroundColor=default;strokeColor=#FFC53D;strokeWidth=2;align=center;verticalAlign=bottom;fontFamily=Helvetica;fontSize=11;fontColor=default;endArrow=classic;endFill=1;endSize=8;" edge="1" parent="1" target="FzTagu3H9T6tqYasrhL2-36">
          <mxGeometry relative="1" as="geometry">
            <mxPoint x="239.9565217391305" y="1299.9565217391305" as="sourcePoint" />
            <Array as="points">
              <mxPoint x="320" y="1300" />
            </Array>
          </mxGeometry>
        </mxCell>
        <mxCell id="FzTagu3H9T6tqYasrhL2-41" style="edgeStyle=orthogonalEdgeStyle;shape=connector;rounded=0;orthogonalLoop=1;jettySize=auto;html=1;entryX=1;entryY=0.5;entryDx=0;entryDy=0;labelBackgroundColor=default;strokeColor=#FFC53D;strokeWidth=2;align=center;verticalAlign=bottom;fontFamily=Helvetica;fontSize=11;fontColor=default;endArrow=classic;endFill=1;endSize=8;" edge="1" parent="1" source="FzTagu3H9T6tqYasrhL2-36" target="FzTagu3H9T6tqYasrhL2-40">
          <mxGeometry relative="1" as="geometry">
            <Array as="points">
              <mxPoint x="320" y="1220" />
            </Array>
          </mxGeometry>
        </mxCell>
        <mxCell id="FzTagu3H9T6tqYasrhL2-36" value="&lt;font style=&quot;&quot;&gt;&lt;font color=&quot;#ffffff&quot;&gt;Unfollow&lt;br&gt;(Happy)&lt;/font&gt;&lt;br&gt;&lt;/font&gt;" style="rounded=1;whiteSpace=wrap;html=1;arcSize=40;fontColor=#000000;fillColor=#4ED4D0;strokeColor=#1CD4C2;gradientColor=#1C3F40;fontFamily=Helvetica;fontSize=11;" vertex="1" parent="1">
          <mxGeometry x="279.7599999999999" y="1280" width="80.24" height="40" as="geometry" />
        </mxCell>
        <mxCell id="FzTagu3H9T6tqYasrhL2-39" value="&lt;font color=&quot;#ffffff&quot;&gt;My user timeline contains all cheeps from me and my followers only&lt;/font&gt;" style="rounded=1;whiteSpace=wrap;html=1;arcSize=40;fontColor=#000000;fillColor=none;strokeColor=#FFFFFF;gradientColor=#1C3F40;fontFamily=Helvetica;fontSize=11;" vertex="1" parent="1">
          <mxGeometry x="39.94" y="1280" width="199.52" height="40" as="geometry" />
        </mxCell>
        <mxCell id="FzTagu3H9T6tqYasrhL2-51" value="" style="edgeStyle=orthogonalEdgeStyle;shape=connector;rounded=0;orthogonalLoop=1;jettySize=auto;html=1;labelBackgroundColor=default;strokeColor=#FFC53D;strokeWidth=2;align=center;verticalAlign=bottom;fontFamily=Helvetica;fontSize=11;fontColor=default;endArrow=classic;endFill=1;endSize=8;" edge="1" parent="1" source="FzTagu3H9T6tqYasrhL2-40" target="FzTagu3H9T6tqYasrhL2-50">
          <mxGeometry relative="1" as="geometry" />
        </mxCell>
        <mxCell id="FzTagu3H9T6tqYasrhL2-40" value="&lt;font style=&quot;font-size: 10px;&quot; color=&quot;#ffffff&quot;&gt;Happy&#39;s cheep are removed from my user timeline, and Happy&#39;s follow button becomes unfollow&lt;/font&gt;" style="rounded=1;whiteSpace=wrap;html=1;arcSize=40;fontColor=#000000;fillColor=none;strokeColor=#FFFFFF;gradientColor=#1C3F40;fontFamily=Helvetica;fontSize=11;" vertex="1" parent="1">
          <mxGeometry x="39.94" y="1200" width="199.52" height="40" as="geometry" />
        </mxCell>
        <mxCell id="FzTagu3H9T6tqYasrhL2-45" value="" style="edgeStyle=orthogonalEdgeStyle;shape=connector;rounded=0;orthogonalLoop=1;jettySize=auto;html=1;labelBackgroundColor=default;strokeColor=#FFC53D;strokeWidth=2;align=center;verticalAlign=bottom;fontFamily=Helvetica;fontSize=11;fontColor=default;endArrow=classic;endFill=1;endSize=8;" edge="1" parent="1" source="FzTagu3H9T6tqYasrhL2-42" target="FzTagu3H9T6tqYasrhL2-44">
          <mxGeometry relative="1" as="geometry" />
        </mxCell>
        <mxCell id="FzTagu3H9T6tqYasrhL2-42" value="&lt;font style=&quot;&quot;&gt;&lt;font color=&quot;#ffffff&quot;&gt;Username&lt;br&gt;&amp;lt;Chirp27&amp;gt;&lt;/font&gt;&lt;br&gt;&lt;/font&gt;" style="rounded=1;whiteSpace=wrap;html=1;arcSize=40;fontColor=#000000;fillColor=#4ED4D0;strokeColor=#1CD4C2;gradientColor=#1C3F40;fontFamily=Helvetica;fontSize=11;" vertex="1" parent="1">
          <mxGeometry x="-140.36000000000013" y="1120" width="80.24" height="40" as="geometry" />
        </mxCell>
        <mxCell id="FzTagu3H9T6tqYasrhL2-47" value="" style="edgeStyle=orthogonalEdgeStyle;shape=connector;rounded=0;orthogonalLoop=1;jettySize=auto;html=1;labelBackgroundColor=default;strokeColor=#FFC53D;strokeWidth=2;align=center;verticalAlign=bottom;fontFamily=Helvetica;fontSize=11;fontColor=default;endArrow=classic;endFill=1;endSize=8;" edge="1" parent="1" source="FzTagu3H9T6tqYasrhL2-44" target="FzTagu3H9T6tqYasrhL2-46">
          <mxGeometry relative="1" as="geometry" />
        </mxCell>
        <mxCell id="FzTagu3H9T6tqYasrhL2-44" value="User Timeline&lt;br&gt;(Chirp27)" style="rounded=1;whiteSpace=wrap;html=1;arcSize=40;fontColor=#000000;fillColor=#ffffc0;strokeColor=#FFA914;gradientColor=#F0C686;fontFamily=Helvetica;fontSize=11;" vertex="1" parent="1">
          <mxGeometry x="-160.18" y="1040" width="120" height="40" as="geometry" />
        </mxCell>
        <mxCell id="FzTagu3H9T6tqYasrhL2-49" value="" style="edgeStyle=orthogonalEdgeStyle;shape=connector;rounded=0;orthogonalLoop=1;jettySize=auto;html=1;labelBackgroundColor=default;strokeColor=#FFC53D;strokeWidth=2;align=center;verticalAlign=bottom;fontFamily=Helvetica;fontSize=11;fontColor=default;endArrow=classic;endFill=1;endSize=8;" edge="1" parent="1" source="FzTagu3H9T6tqYasrhL2-46" target="FzTagu3H9T6tqYasrhL2-48">
          <mxGeometry relative="1" as="geometry" />
        </mxCell>
        <mxCell id="FzTagu3H9T6tqYasrhL2-46" value="&lt;font style=&quot;font-size: 12px;&quot; color=&quot;#ffffff&quot;&gt;I should only be able to see Chrip27&#39;s cheeps&lt;/font&gt;" style="rounded=1;whiteSpace=wrap;html=1;arcSize=40;fontColor=#000000;fillColor=none;strokeColor=#FFFFFF;gradientColor=#1C3F40;fontFamily=Helvetica;fontSize=11;" vertex="1" parent="1">
          <mxGeometry x="-0.47999999999998977" y="1040" width="199.52" height="40" as="geometry" />
        </mxCell>
        <mxCell id="FzTagu3H9T6tqYasrhL2-54" value="" style="edgeStyle=orthogonalEdgeStyle;shape=connector;rounded=0;orthogonalLoop=1;jettySize=auto;html=1;labelBackgroundColor=default;strokeColor=#FFC53D;strokeWidth=2;align=center;verticalAlign=bottom;fontFamily=Helvetica;fontSize=11;fontColor=default;endArrow=classic;endFill=1;endSize=8;" edge="1" parent="1" source="FzTagu3H9T6tqYasrhL2-48" target="FzTagu3H9T6tqYasrhL2-53">
          <mxGeometry relative="1" as="geometry" />
        </mxCell>
        <mxCell id="FzTagu3H9T6tqYasrhL2-48" value="&lt;font style=&quot;&quot;&gt;&lt;font color=&quot;#ffffff&quot;&gt;Unfollow&lt;br&gt;(Chirp27)&lt;/font&gt;&lt;br&gt;&lt;/font&gt;" style="rounded=1;whiteSpace=wrap;html=1;arcSize=40;fontColor=#000000;fillColor=#4ED4D0;strokeColor=#1CD4C2;gradientColor=#1C3F40;fontFamily=Helvetica;fontSize=11;" vertex="1" parent="1">
          <mxGeometry x="59.15999999999988" y="960" width="80.24" height="40" as="geometry" />
        </mxCell>
        <mxCell id="FzTagu3H9T6tqYasrhL2-52" value="" style="edgeStyle=orthogonalEdgeStyle;shape=connector;rounded=0;orthogonalLoop=1;jettySize=auto;html=1;labelBackgroundColor=default;strokeColor=#FFC53D;strokeWidth=2;align=center;verticalAlign=bottom;fontFamily=Helvetica;fontSize=11;fontColor=default;endArrow=classic;endFill=1;endSize=8;" edge="1" parent="1" source="FzTagu3H9T6tqYasrhL2-50" target="FzTagu3H9T6tqYasrhL2-42">
          <mxGeometry relative="1" as="geometry" />
        </mxCell>
        <mxCell id="FzTagu3H9T6tqYasrhL2-50" value="User Timeline&lt;br&gt;(My timeline)" style="rounded=1;whiteSpace=wrap;html=1;arcSize=40;fontColor=#000000;fillColor=#ffffc0;strokeColor=#FFA914;gradientColor=#F0C686;fontFamily=Helvetica;fontSize=11;" vertex="1" parent="1">
          <mxGeometry x="-160" y="1200" width="120" height="40" as="geometry" />
        </mxCell>
        <mxCell id="FzTagu3H9T6tqYasrhL2-56" value="" style="edgeStyle=orthogonalEdgeStyle;shape=connector;rounded=0;orthogonalLoop=1;jettySize=auto;html=1;labelBackgroundColor=default;strokeColor=#FFC53D;strokeWidth=2;align=center;verticalAlign=bottom;fontFamily=Helvetica;fontSize=11;fontColor=default;endArrow=classic;endFill=1;endSize=8;" edge="1" parent="1" source="FzTagu3H9T6tqYasrhL2-53">
          <mxGeometry relative="1" as="geometry">
            <mxPoint x="-100.59259259259261" y="920" as="targetPoint" />
          </mxGeometry>
        </mxCell>
        <mxCell id="FzTagu3H9T6tqYasrhL2-53" value="&lt;font color=&quot;#ffffff&quot;&gt;Button to Chirp27 becomes &lt;i&gt;unfollow&lt;/i&gt;&lt;/font&gt;" style="rounded=1;whiteSpace=wrap;html=1;arcSize=40;fontColor=#000000;fillColor=none;strokeColor=#FFFFFF;gradientColor=#1C3F40;fontFamily=Helvetica;fontSize=11;" vertex="1" parent="1">
          <mxGeometry x="-199.76" y="960" width="199.52" height="40" as="geometry" />
        </mxCell>
        <mxCell id="FzTagu3H9T6tqYasrhL2-58" value="" style="edgeStyle=orthogonalEdgeStyle;shape=connector;rounded=0;orthogonalLoop=1;jettySize=auto;html=1;labelBackgroundColor=default;strokeColor=#FFC53D;strokeWidth=2;align=center;verticalAlign=bottom;fontFamily=Helvetica;fontSize=11;fontColor=default;endArrow=classic;endFill=1;endSize=8;exitX=1;exitY=0.5;exitDx=0;exitDy=0;" edge="1" parent="1" source="FzTagu3H9T6tqYasrhL2-76" target="FzTagu3H9T6tqYasrhL2-57">
          <mxGeometry relative="1" as="geometry">
            <mxPoint x="-60.48000000000002" y="900" as="sourcePoint" />
          </mxGeometry>
        </mxCell>
        <mxCell id="FzTagu3H9T6tqYasrhL2-60" value="" style="edgeStyle=orthogonalEdgeStyle;shape=connector;rounded=0;orthogonalLoop=1;jettySize=auto;html=1;labelBackgroundColor=default;strokeColor=#FFC53D;strokeWidth=2;align=center;verticalAlign=bottom;fontFamily=Helvetica;fontSize=11;fontColor=default;endArrow=classic;endFill=1;endSize=8;" edge="1" parent="1" source="FzTagu3H9T6tqYasrhL2-57" target="FzTagu3H9T6tqYasrhL2-59">
          <mxGeometry relative="1" as="geometry" />
        </mxCell>
        <mxCell id="FzTagu3H9T6tqYasrhL2-57" value="&lt;font color=&quot;#ffffff&quot;&gt;My user timeline should now only contain my cheeps (no followee)&lt;/font&gt;" style="rounded=1;whiteSpace=wrap;html=1;arcSize=40;fontColor=#000000;fillColor=none;strokeColor=#FFFFFF;gradientColor=#1C3F40;fontFamily=Helvetica;fontSize=11;" vertex="1" parent="1">
          <mxGeometry x="-0.47999999999998977" y="880" width="199.52" height="40" as="geometry" />
        </mxCell>
        <mxCell id="FzTagu3H9T6tqYasrhL2-61" value="" style="edgeStyle=orthogonalEdgeStyle;shape=connector;rounded=0;orthogonalLoop=1;jettySize=auto;html=1;labelBackgroundColor=default;strokeColor=#FFC53D;strokeWidth=2;align=center;verticalAlign=bottom;fontFamily=Helvetica;fontSize=11;fontColor=default;endArrow=classic;endFill=1;endSize=8;" edge="1" parent="1" source="FzTagu3H9T6tqYasrhL2-59" target="UVocr931k_2hGVf8hIcp-179">
          <mxGeometry relative="1" as="geometry" />
        </mxCell>
        <mxCell id="FzTagu3H9T6tqYasrhL2-59" value="About Me" style="rounded=1;whiteSpace=wrap;html=1;arcSize=40;fontColor=#000000;fillColor=#ffffc0;strokeColor=#FFA914;gradientColor=#F0C686;fontFamily=Helvetica;fontSize=11;" vertex="1" parent="1">
          <mxGeometry x="39.94" y="800" width="120" height="40" as="geometry" />
        </mxCell>
        <mxCell id="FzTagu3H9T6tqYasrhL2-75" value="" style="edgeStyle=orthogonalEdgeStyle;shape=connector;rounded=0;orthogonalLoop=1;jettySize=auto;html=1;labelBackgroundColor=default;strokeColor=#FFC53D;strokeWidth=2;align=center;verticalAlign=bottom;fontFamily=Helvetica;fontSize=11;fontColor=default;endArrow=classic;endFill=1;endSize=8;entryX=1;entryY=0.5;entryDx=0;entryDy=0;" edge="1" parent="1" source="FzTagu3H9T6tqYasrhL2-69" target="UVocr931k_2hGVf8hIcp-198">
          <mxGeometry relative="1" as="geometry">
            <mxPoint x="100" y="600" as="targetPoint" />
          </mxGeometry>
        </mxCell>
        <mxCell id="FzTagu3H9T6tqYasrhL2-69" value="&lt;font color=&quot;#ffffff&quot;&gt;All of my user data is removed from the database&lt;/font&gt;" style="rounded=1;whiteSpace=wrap;html=1;arcSize=40;fontColor=#000000;fillColor=none;strokeColor=#FFFFFF;gradientColor=#1C3F40;fontFamily=Helvetica;fontSize=11;" vertex="1" parent="1">
          <mxGeometry x="19.279999999999998" y="640" width="161.44" height="40" as="geometry" />
        </mxCell>
        <mxCell id="FzTagu3H9T6tqYasrhL2-76" value="User Timeline&lt;br&gt;(My timeline)" style="rounded=1;whiteSpace=wrap;html=1;arcSize=40;fontColor=#000000;fillColor=#ffffc0;strokeColor=#FFA914;gradientColor=#F0C686;fontFamily=Helvetica;fontSize=11;" vertex="1" parent="1">
          <mxGeometry x="-160" y="880" width="120" height="40" as="geometry" />
        </mxCell>
      </root>
    </mxGraphModel>
  </diagram>
</mxfile>
